<?xml version="1.0" encoding="UTF-8"?>
<svg version="1.1" xmlns="http://www.w3.org/2000/svg" width="1024" height="1024">
<path d="M0 0 C337.92 0 675.84 0 1024 0 C1024 337.92 1024 675.84 1024 1024 C686.08 1024 348.16 1024 0 1024 C0 686.08 0 348.16 0 0 Z " fill="#FEFDFB" transform="translate(0,0)"/>
<path d="M0 0 C6.58255487 2.95325435 11.87078507 2.76615714 18.5859375 0.2109375 C22.2511839 -1.2656889 25.8653208 -2.84580672 29.45654297 -4.49389648 C35.62159966 -7.00549614 41.20951077 -6.8609246 47.4375 -4.5625 C52.88554224 -2.22762476 56.03348508 0.83147761 59.3125 5.75 C60.461387 13.64859812 57.06342412 18.96826588 53.3125 25.75 C51.9298421 28.2875602 50.55697963 30.83030682 49.1875 33.375 C48.84589844 34.00680176 48.50429688 34.63860352 48.15234375 35.28955078 C45.47534767 40.2985021 43.22652669 45.39828062 41.3125 50.75 C42.6428125 50.6571875 42.6428125 50.6571875 44 50.5625 C47.69079746 50.77141306 49.37614264 51.56870596 52.3125 53.75 C53.775458 56.675916 53.75773109 58.50617347 53.3125 61.75 C51.4903518 63.90854479 49.69213631 65.13184731 47.3125 66.75 C46.6525 66.75 45.9925 66.75 45.3125 66.75 C50.94275738 73.45634752 57.08319264 79.60837055 63.3125 85.75 C69.54182264 91.8916445 75.6943205 98.03403624 81.3125 104.75 C82.01584473 105.5855542 82.01584473 105.5855542 82.73339844 106.43798828 C105.13361716 133.40720468 115.84248553 162.55390658 113.3125 197.75 C110.96705937 217.15287477 101.90949391 233.92826239 88.3125 247.75 C87.56355469 248.51183594 86.81460938 249.27367187 86.04296875 250.05859375 C63.57132678 271.5613092 30.75324115 279.65033789 0.41796875 278.9921875 C-30.05134342 277.82584279 -58.79562216 265.73169936 -80.08203125 243.76953125 C-93.05708796 228.73247152 -100.90705319 209.65139364 -101.6875 189.75 C-101.76484375 188.44289063 -101.76484375 188.44289063 -101.84375 187.109375 C-102.74880878 159.50508232 -91.14370308 131.71455762 -73.6875 110.75 C-73.25244141 110.22164551 -72.81738281 109.69329102 -72.36914062 109.14892578 C-61.39638476 95.86631969 -49.69948215 81.84702761 -36.3125 70.9375 C-33.6558878 69.0207913 -33.6558878 69.0207913 -32.6875 66.75 C-34.04875 66.6571875 -34.04875 66.6571875 -35.4375 66.5625 C-38.6875 65.75 -38.6875 65.75 -41.125 63.5625 C-42.6875 60.75 -42.6875 60.75 -42.8125 57.6875 C-41.27171675 53.66434374 -39.50723724 52.65986862 -35.6875 50.75 C-33.36123717 50.37045185 -31.0277463 50.03071838 -28.6875 49.75 C-32.84672502 39.7120938 -37.14624686 30.21762432 -43.44873047 21.31835938 C-46.53544841 16.76334501 -48.12198025 12.33251256 -47.6875 6.75 C-44.27238713 -0.09417167 -37.55757798 -2.73858176 -30.6875 -5.25 C-20.05013585 -8.37161901 -9.59487915 -4.75498436 0 0 Z " fill="#6DCB95" transform="translate(274.6875,368.25)"/>
<path d="M0 0 C6.58255487 2.95325435 11.87078507 2.76615714 18.5859375 0.2109375 C22.2511839 -1.2656889 25.8653208 -2.84580672 29.45654297 -4.49389648 C35.62159966 -7.00549614 41.20951077 -6.8609246 47.4375 -4.5625 C52.88554224 -2.22762476 56.03348508 0.83147761 59.3125 5.75 C60.461387 13.64859812 57.06342412 18.96826588 53.3125 25.75 C51.9298421 28.2875602 50.55697963 30.83030682 49.1875 33.375 C48.84589844 34.00680176 48.50429688 34.63860352 48.15234375 35.28955078 C45.47534767 40.2985021 43.22652669 45.39828062 41.3125 50.75 C42.6428125 50.6571875 42.6428125 50.6571875 44 50.5625 C47.69079746 50.77141306 49.37614264 51.56870596 52.3125 53.75 C53.775458 56.675916 53.75773109 58.50617347 53.3125 61.75 C51.4903518 63.90854479 49.69213631 65.13184731 47.3125 66.75 C46.6525 66.75 45.9925 66.75 45.3125 66.75 C50.94275738 73.45634752 57.08319264 79.60837055 63.3125 85.75 C69.54182264 91.8916445 75.6943205 98.03403624 81.3125 104.75 C82.01584473 105.5855542 82.01584473 105.5855542 82.73339844 106.43798828 C105.13361716 133.40720468 115.84248553 162.55390658 113.3125 197.75 C110.96705937 217.15287477 101.90949391 233.92826239 88.3125 247.75 C87.56355469 248.51183594 86.81460938 249.27367187 86.04296875 250.05859375 C63.57132678 271.5613092 30.75324115 279.65033789 0.41796875 278.9921875 C-30.05134342 277.82584279 -58.79562216 265.73169936 -80.08203125 243.76953125 C-93.05708796 228.73247152 -100.90705319 209.65139364 -101.6875 189.75 C-101.76484375 188.44289063 -101.76484375 188.44289063 -101.84375 187.109375 C-102.74880878 159.50508232 -91.14370308 131.71455762 -73.6875 110.75 C-73.25244141 110.22164551 -72.81738281 109.69329102 -72.36914062 109.14892578 C-61.39638476 95.86631969 -49.69948215 81.84702761 -36.3125 70.9375 C-33.6558878 69.0207913 -33.6558878 69.0207913 -32.6875 66.75 C-34.04875 66.6571875 -34.04875 66.6571875 -35.4375 66.5625 C-38.6875 65.75 -38.6875 65.75 -41.125 63.5625 C-42.6875 60.75 -42.6875 60.75 -42.8125 57.6875 C-41.27171675 53.66434374 -39.50723724 52.65986862 -35.6875 50.75 C-33.36123717 50.37045185 -31.0277463 50.03071838 -28.6875 49.75 C-32.84672502 39.7120938 -37.14624686 30.21762432 -43.44873047 21.31835938 C-46.53544841 16.76334501 -48.12198025 12.33251256 -47.6875 6.75 C-44.27238713 -0.09417167 -37.55757798 -2.73858176 -30.6875 -5.25 C-20.05013585 -8.37161901 -9.59487915 -4.75498436 0 0 Z M-23.17822266 77.05673218 C-25.36978338 79.51545805 -27.74399212 81.76643825 -30.11791992 84.04743958 C-32.71020439 86.54488185 -35.25680796 89.08678547 -37.8059082 91.62817383 C-39.74439748 93.55692562 -41.69334479 95.47469319 -43.64257812 97.39257812 C-51.69457725 105.37762763 -58.90050664 113.66962392 -65.6875 122.75 C-66.36135742 123.62615967 -67.03521484 124.50231934 -67.72949219 125.4050293 C-83.28186169 145.79617014 -88.66744543 171.61420014 -86.6875 196.75 C-84.37154155 213.18140483 -76.44745064 227.16674311 -64.6875 238.75 C-63.90503906 239.53117188 -63.12257813 240.31234375 -62.31640625 241.1171875 C-42.1747207 260.25984544 -14.59177707 265.74113284 12.328125 265.1015625 C37.88537459 263.9578221 62.81375415 254.28733508 80.5 235.5 C95.64206678 217.62739659 100.69044876 197.40784526 99.55957031 174.46484375 C96.80854199 144.23615314 77.82038561 120.52192089 57.81396484 99.35302734 C56.25068331 97.68400188 54.71094354 95.9956879 53.17578125 94.30078125 C46.17098374 86.55824972 46.17098374 86.55824972 38.38037109 79.62231445 C36.3125 77.75 36.3125 77.75 34.42773438 75.28515625 C30.88576481 70.8955634 27.70745408 67.72706372 22.03955078 66.76049805 C17.87467097 66.32674067 13.7381069 66.29909921 9.5546875 66.39135742 C6.9437499 66.43738981 4.35207817 66.3714662 1.7421875 66.29492188 C-9.41857959 66.20677216 -15.73075273 68.453227 -23.17822266 77.05673218 Z " fill="#044830" transform="translate(274.6875,368.25)"/>
<path d="M0 0 C54.06329114 0 54.06329114 0 65 9 C70.72913497 15.02293677 71.46892244 20.68942879 71.3046875 28.7734375 C70.77418727 34.39129888 69.18819922 38.05818199 64.953125 41.81640625 C63.01316631 43.29889241 61.05503979 44.68317839 59 46 C59.65226562 46.32871094 60.30453125 46.65742187 60.9765625 46.99609375 C68.47696816 51.07817294 73.26257887 55.7877366 76 64 C76.77568738 71.64242811 76.01492827 78.3538193 72 85 C66.08443409 92.11503549 57.95418459 95.44990724 49 97 C47.31303005 97.08241543 45.62330245 97.11788967 43.93432617 97.11352539 C42.94009644 97.11340454 41.9458667 97.11328369 40.92150879 97.11315918 C39.88909058 97.10804321 38.85667236 97.10292725 37.79296875 97.09765625 C36.8347522 97.09664917 35.87653564 97.09564209 34.88928223 97.09460449 C31.32200925 97.0893865 27.75475338 97.07542525 24.1875 97.0625 C16.205625 97.041875 8.22375 97.02125 0 97 C0 64.99 0 32.98 0 0 Z " fill="#044932" transform="translate(423,519)"/>
<path d="M0 0 C55.95709746 0 55.95709746 0 65.33984375 9.09375 C70.27810361 14.76403426 71.62483201 19.89211908 71.32421875 27.38671875 C70.59842696 33.23677543 68.05193683 37.70971395 64 42 C61.25 43.8125 61.25 43.8125 59 45 C59.59167969 45.36351562 60.18335938 45.72703125 60.79296875 46.1015625 C68.23658113 50.83730284 73.24307309 55.29391504 76 64 C76.97647683 72.17297733 75.4768501 79.00005015 70.5625 85.625 C63.06664266 93.71312262 53.53268337 95.24455277 43 97 C28.81 97 14.62 97 0 97 C0 64.99 0 32.98 0 0 Z " fill="#034932" transform="translate(423,397)"/>
<path d="M0 0 C2.80689029 1.75853367 4.78057617 3.71577362 6.9453125 6.21875 C7.4403125 6.71375 7.4403125 6.71375 7.9453125 7.21875 C8.2753125 4.57875 8.6053125 1.93875 8.9453125 -0.78125 C14.8853125 -0.78125 20.8253125 -0.78125 26.9453125 -0.78125 C27.01355306 7.32152966 27.06839314 15.42407948 27.10074902 23.527071 C27.11629155 27.29110665 27.13731602 31.05493262 27.17163086 34.81884766 C27.20463816 38.46285893 27.22225087 42.10667073 27.22994423 45.75082016 C27.23541464 47.12924202 27.24609254 48.50765511 27.26250267 49.88599014 C27.40376974 62.26305599 27.21319573 75.61361001 18.26171875 84.98046875 C9.35750843 93.52636074 -0.8887238 95.39824134 -12.8046875 95.46875 C-13.660625 95.489375 -14.5165625 95.51 -15.3984375 95.53125 C-24.13701784 95.58421109 -31.05093736 93.88366113 -37.5546875 87.78125 C-38.39 87.01941406 -39.2253125 86.25757813 -40.0859375 85.47265625 C-42.0546875 83.21875 -42.0546875 83.21875 -43.0546875 79.21875 C-39.0946875 76.57875 -35.1346875 73.93875 -31.0546875 71.21875 C-27.0546875 73.21875 -27.0546875 73.21875 -24.1171875 75.71875 C-19.26986875 79.6757449 -15.54742791 80.63888575 -9.39453125 80.46484375 C-4.10690669 79.90871629 0.21538631 78.42226426 3.8203125 74.40625 C7.20931922 69.32273993 8.2350304 65.30282587 7.9453125 59.21875 C7.18347656 59.94191406 7.18347656 59.94191406 6.40625 60.6796875 C5.71789062 61.31132812 5.02953125 61.94296875 4.3203125 62.59375 C3.64742187 63.22023438 2.97453125 63.84671875 2.28125 64.4921875 C-4.30544643 69.3606153 -12.23172654 68.90088456 -20.0546875 68.21875 C-27.24909258 66.57290665 -33.33687818 62.90638736 -38.0546875 57.21875 C-44.67258928 46.21774987 -46.62300405 36.05395545 -44.59375 23.328125 C-42.21694733 14.43608676 -36.91413981 6.18182065 -29.0546875 1.21875 C-19.47086599 -3.58063643 -9.77497101 -4.90500338 0 0 Z " fill="#054630" transform="translate(712.0546875,424.78125)"/>
<path d="M0 0 C6.27 0 12.54 0 19 0 C19 32.01 19 64.02 19 97 C13.06 97 7.12 97 1 97 C0.505 92.545 0.505 92.545 0 88 C-0.49628906 88.47050781 -0.99257813 88.94101562 -1.50390625 89.42578125 C-9.47588421 96.73216712 -14.80442817 98.54879306 -25.625 98.28515625 C-32.70037204 97.68735283 -38.82870588 94.89209279 -44 90 C-51.65202556 80.60561181 -54.93537884 70.04300257 -54 58 C-51.9600174 46.34509942 -48.29555092 37.58100084 -39 30 C-31.05193989 25.08382022 -22.93849004 23.62164676 -13.6796875 25.4609375 C-8.16249889 27.30000037 -5.6995929 29.97177752 -1 34 C-0.67 22.78 -0.34 11.56 0 0 Z " fill="#034730" transform="translate(638,397)"/>
<path d="M0 0 C5.94 0 11.88 0 18 0 C18 32.01 18 64.02 18 97 C12.39 97 6.78 97 1 97 C0.505 92.545 0.505 92.545 0 88 C-0.61875 88.886875 -1.2375 89.77375 -1.875 90.6875 C-6.4017956 95.98133597 -11.756405 98.56752067 -18.6328125 99.484375 C-26.98928994 99.78824691 -33.03688802 98.64659029 -40 94 C-40.9075 93.443125 -41.815 92.88625 -42.75 92.3125 C-50.68964375 84.15231059 -54.01989918 73.81939606 -54.4375 62.625 C-54.11687808 51.36315516 -50.51542718 41.44500832 -43 33 C-35.41539505 26.143129 -27.89911561 25.46136598 -18.12109375 25.68359375 C-10.24455758 26.10596129 -6.61704342 29.38295658 -1 35 C-0.67 23.45 -0.34 11.9 0 0 Z " fill="#02452E" transform="translate(638,519)"/>
<path d="M0 0 C5.94 0 11.88 0 18 0 C18 32.01 18 64.02 18 97 C12.39 97 6.78 97 1 97 C0.505 93.04 0.505 93.04 0 89 C-0.49628906 89.47050781 -0.99257813 89.94101562 -1.50390625 90.42578125 C-9.63768384 97.88045787 -15.18633122 99.64802131 -26.26171875 99.41796875 C-34.07482121 98.54440348 -39.93134684 94.96312136 -45 89 C-46.0209375 87.9171875 -46.0209375 87.9171875 -47.0625 86.8125 C-53.47210809 77.5082302 -54.86346784 67.05482066 -54 56 C-51.82681921 45.00991431 -47.33402962 37.61046701 -39.00390625 30.32421875 C-33.35707911 26.5926897 -28.34375883 25.4171721 -21.6875 25.4375 C-20.94491943 25.4377417 -20.20233887 25.4379834 -19.43725586 25.43823242 C-12.87008075 25.6420487 -7.94536012 27.5524223 -3 32 C-2.34 32.99 -1.68 33.98 -1 35 C-0.67 23.45 -0.34 11.9 0 0 Z " fill="#044630" transform="translate(720,519)"/>
<path d="M0 0 C3.3 0 6.6 0 10 0 C12.09448302 5.53541942 13.02782755 11.18764979 14 17 C14.73347656 17.11214844 15.46695313 17.22429687 16.22265625 17.33984375 C23.50300549 19.07033464 28.69164382 24.23239838 32.90625 30.16796875 C35.62654307 34.72445965 35 37.15221053 35 43 C29.06 43 23.12 43 17 43 C16.38151042 40.72135417 15.76302083 38.44270833 15.14453125 36.1640625 C14.1542774 33.81568485 14.1542774 33.81568485 11.73046875 32.73828125 C7.1109539 31.48922788 2.73605454 31.3254495 -2 32 C-5.35801159 33.77367957 -5.35801159 33.77367957 -7 37 C-7.62608619 40.87720846 -7.24620531 44.26138406 -6 48 C-3.73162167 49.13375881 -3.73162167 49.13375881 -1 50 C-0.10772705 50.34119873 0.7845459 50.68239746 1.70385742 51.03393555 C2.66138916 51.397854 3.6189209 51.76177246 4.60546875 52.13671875 C6.79964614 52.98654818 8.99365077 53.83682377 11.1875 54.6875 C12.27353516 55.09677734 13.35957031 55.50605469 14.47851562 55.92773438 C24.572258 59.87429671 33.33465781 64.49684535 39 74 C41.24559494 80.73678481 41.1001151 89.30548836 38.5 95.9375 C34.4332196 103.61443984 27.15689224 108.44127905 19 111 C15.9375 111.25 15.9375 111.25 14 111 C13.90912109 111.87011719 13.90912109 111.87011719 13.81640625 112.7578125 C13.33983439 117.20092863 12.78991334 121.59905423 12 126 C8.04 126 4.08 126 0 126 C-1.46670113 120.77487721 -2.22577402 116.4185766 -2 111 C-2.94875 110.938125 -3.8975 110.87625 -4.875 110.8125 C-13.16233884 109.57107677 -19.38260058 105.3288142 -24.625 98.96484375 C-28.33457166 93.66395016 -28.22303233 90.99270899 -29 84 C-19.1 83.01 -19.1 83.01 -9 82 C-8.34 84.64 -7.68 87.28 -7 90 C-4.79185056 92.59457559 -3.04391181 94.4780441 0 96 C2.10053716 96.14901491 4.20687825 96.22138453 6.3125 96.25 C7.44300781 96.27578125 8.57351563 96.3015625 9.73828125 96.328125 C13.31270151 95.9685426 15.14810326 95.14022123 18 93 C19.12992055 90.74015891 19.29799956 89.20273513 19.4375 86.6875 C19.49808594 85.92824219 19.55867188 85.16898438 19.62109375 84.38671875 C18.64602258 80.63974714 16.15976746 78.94515797 13 77 C9.48815207 75.32624232 5.8879878 73.93657782 2.25 72.5625 C-17.02817639 65.24050031 -17.02817639 65.24050031 -23.0625 57.8125 C-23.61035156 57.15894531 -24.15820312 56.50539063 -24.72265625 55.83203125 C-28.66568895 50.17673359 -27.44872256 41.59427066 -27 35 C-25.39117427 28.21628896 -20.47263025 23.99068008 -15 20 C-11.07948244 17.6938132 -8.54961231 16.90992246 -4 16 C-2.68 10.72 -1.36 5.44 0 0 Z " fill="#03482F" transform="translate(276,473)"/>
<path d="M0 0 C7.61319895 5.30789385 11.58479086 11.67588752 13.71484375 20.64453125 C13.71484375 25.59453125 13.71484375 30.54453125 13.71484375 35.64453125 C-3.11515625 35.64453125 -19.94515625 35.64453125 -37.28515625 35.64453125 C-34.37539465 44.99827021 -34.37539465 44.99827021 -27.515625 50.74609375 C-22.14271171 52.91031451 -15.05515799 52.78213502 -9.7265625 50.59375 C-6.91330971 48.84385515 -4.62643735 46.98581235 -2.28515625 44.64453125 C3.36149648 44.99024468 8.41896778 46.73513379 13.71484375 48.64453125 C9.55644368 57.13459805 3.58338096 62.26287941 -5.109375 65.91796875 C-15.57768385 69.41366973 -27.68199561 69.0596343 -37.59765625 64.25 C-46.24494092 59.08425291 -52.03349913 52.55842878 -54.82495117 42.74731445 C-56.97806213 32.90925363 -56.41394537 20.38710132 -51.28515625 11.64453125 C-45.45347394 3.19907167 -38.067426 -1.86391203 -28.30859375 -4.98828125 C-18.17325461 -6.82751268 -8.81877696 -5.23096685 0 0 Z " fill="#04452F" transform="translate(804.28515625,427.35546875)"/>
<path d="M0 0 C6.27 0 12.54 0 19 0 C19.01458252 1.45817139 19.02916504 2.91634277 19.04418945 4.41870117 C19.10219647 9.83284937 19.17942995 15.24658273 19.26245117 20.66040039 C19.29568906 23.00277978 19.3237245 25.34523904 19.34643555 27.68774414 C19.38000168 31.05649833 19.43232019 34.42452131 19.48828125 37.79296875 C19.49467117 38.83897751 19.5010611 39.88498627 19.50764465 40.96269226 C19.57429689 48.00448112 19.57429689 48.00448112 23 54 C27.06151338 56.70767559 30.23533959 56.52215457 35 56 C39.71878688 54.30835942 42.20582817 52.13951382 45 48 C45.92923977 45.21228069 46.14867338 43.41765752 46.20532227 40.52856445 C46.22526749 39.62785721 46.24521271 38.72714996 46.26576233 37.79914856 C46.28247482 36.83031235 46.29918732 35.86147614 46.31640625 34.86328125 C46.33718735 33.86870407 46.35796844 32.87412689 46.37937927 31.84941101 C46.44479412 28.67051133 46.5037224 25.49152866 46.5625 22.3125 C46.60569288 20.15819452 46.64930742 18.00389746 46.69335938 15.84960938 C46.80046731 10.56649142 46.90175766 5.28328995 47 0 C53.27 0 59.54 0 66 0 C66 23.1 66 46.2 66 70 C60.39 70 54.78 70 49 70 C48.505 65.545 48.505 65.545 48 61 C47.030625 62.0725 46.06125 63.145 45.0625 64.25 C38.77437134 70.41311617 33.24053413 72.22900292 24.4375 72.5 C16.37958783 72.25802066 11.85310231 70.85310231 6.1875 65.1875 C1.77732502 58.76124502 -0.13307701 52.56542007 -0.11352539 44.8425293 C-0.11344986 43.84186935 -0.11337433 42.84120941 -0.11329651 41.81022644 C-0.10813522 40.7423439 -0.10297394 39.67446136 -0.09765625 38.57421875 C-0.0962413 37.47149124 -0.09482635 36.36876373 -0.09336853 35.23262024 C-0.08778004 31.71755233 -0.07522959 28.20254859 -0.0625 24.6875 C-0.05748352 22.30143321 -0.05292087 19.91536543 -0.04882812 17.52929688 C-0.03781437 11.68617327 -0.02055758 5.84309751 0 0 Z " fill="#034932" transform="translate(508,546)"/>
<path d="M0 0 C6.27 0 12.54 0 19 0 C19.01458252 1.42787842 19.02916504 2.85575684 19.04418945 4.3269043 C19.10220226 9.62924119 19.17943566 14.93115475 19.26245117 20.2331543 C19.29568634 22.52702967 19.32372264 24.82098654 19.34643555 27.11499023 C19.38000674 30.41425273 19.43232535 33.7127693 19.48828125 37.01171875 C19.49467117 38.03585373 19.5010611 39.05998871 19.50764465 40.11515808 C19.59669284 47.07266057 19.59669284 47.07266057 23 53 C27.26756038 55.84504025 30.99228356 55.61717566 36 55 C41.11847759 52.63033445 43.93814281 49.19014824 46 44 C46.57150331 40.55982291 46.6047563 37.17362206 46.609375 33.69140625 C46.62591125 32.72468491 46.64244751 31.75796356 46.65948486 30.76194763 C46.70779918 27.69539938 46.72929921 24.62934647 46.75 21.5625 C46.7781735 19.47458468 46.80810285 17.38669226 46.83984375 15.29882812 C46.91683766 10.19899453 46.95751185 5.10070293 47 0 C53.27 0 59.54 0 66 0 C66 23.1 66 46.2 66 70 C60.39 70 54.78 70 49 70 C48.67 66.7 48.34 63.4 48 60 C47.525625 60.721875 47.05125 61.44375 46.5625 62.1875 C41.98217035 67.21469108 35.56616069 70.70068196 28.7421875 71.2734375 C18.71099853 71.53688287 12.6531369 70.2485163 5.125 63.375 C0.06958733 55.34581517 -0.43433126 46.47402167 -0.29296875 37.20703125 C-0.28872391 36.13498947 -0.28447906 35.06294769 -0.28010559 33.9584198 C-0.26347989 30.57617739 -0.22585846 27.19455851 -0.1875 23.8125 C-0.17243233 21.50196181 -0.1587476 19.19141416 -0.14648438 16.88085938 C-0.11362928 11.25367057 -0.06196021 5.62694053 0 0 Z " fill="#03462F" transform="translate(508,424)"/>
<path d="M0 0 C6.27 0 12.54 0 19 0 C22.77982816 8.92287303 26.29038752 17.92645187 29.6875 27 C30.64727658 29.56343376 31.60987151 32.12578269 32.57421875 34.6875 C33.20203247 36.36392578 33.20203247 36.36392578 33.8425293 38.07421875 C34.78853107 40.46546222 35.79990471 42.72897075 37 45 C37.34256836 43.95658447 37.68513672 42.91316895 38.03808594 41.83813477 C39.323096 37.92837183 40.61427487 34.02066849 41.90722656 30.11352539 C42.46357162 28.42950178 43.0182928 26.74494071 43.57128906 25.05981445 C49.22953899 7.82462175 49.22953899 7.82462175 53 0 C58.94 0 64.88 0 71 0 C69.62161363 7.08884419 67.4557519 13.53857683 64.8125 20.25 C64.38469238 21.34683105 63.95688477 22.44366211 63.51611328 23.57373047 C62.29555741 26.68770727 61.06675354 29.79812295 59.83172607 32.90637207 C58.95017383 35.12542287 58.0710963 37.34544667 57.19189453 39.56542969 C55.58511078 43.61712718 53.96776342 47.66449309 52.34384155 51.70935059 C51.70871434 53.29293738 51.07552628 54.87730359 50.44448853 56.46252441 C47.16784266 64.68077981 43.75061236 72.79717845 39.8515625 80.7421875 C39.54044525 81.38616486 39.229328 82.03014221 38.90878296 82.69363403 C35.59651065 89.28001908 32.03059545 94.21705597 25 97 C20.13070409 98.48784042 15.04143737 98.06721916 10 98 C10 92.72 10 87.44 10 82 C11.381875 81.938125 12.76375 81.87625 14.1875 81.8125 C17.76811948 81.4077832 18.90012027 81.07599544 21.875 78.8125 C25.84036805 73.84632339 25.84036805 73.84632339 26.77319336 67.82348633 C25.73192929 64.0210806 24.26930769 60.45972006 22.75390625 56.82421875 C22.42680161 56.02959229 22.09969696 55.23496582 21.76268005 54.41625977 C20.70018333 51.83823747 19.63134624 49.2628954 18.5625 46.6875 C17.83358211 44.92114577 17.10506779 43.15462494 16.37695312 41.38793945 C13.17837468 33.63477907 9.9604974 25.88982145 6.71484375 18.15625 C6.01476196 16.48622925 6.01476196 16.48622925 5.30053711 14.7824707 C4.45226683 12.76378809 3.60038379 10.74661866 2.74438477 8.73120117 C2.37498779 7.85439697 2.00559082 6.97759277 1.625 6.07421875 C1.30789063 5.32744873 0.99078125 4.58067871 0.6640625 3.8112793 C0 2 0 2 0 0 Z " fill="#034A33" transform="translate(746,546)"/>
<path d="M0 0 C1.39456867 0.00574201 2.78910972 0.01875397 4.18359375 0.03515625 C6.63796875 0.05578125 9.09234375 0.07640625 11.62109375 0.09765625 C11.62109375 6.03765625 11.62109375 11.97765625 11.62109375 18.09765625 C16.90109375 18.09765625 22.18109375 18.09765625 27.62109375 18.09765625 C27.62109375 23.04765625 27.62109375 27.99765625 27.62109375 33.09765625 C22.34109375 33.09765625 17.06109375 33.09765625 11.62109375 33.09765625 C11.71809275 38.15181478 11.82086075 43.20516529 11.93847656 48.25878906 C11.97672702 49.97746636 12.01158678 51.69622263 12.04296875 53.41503906 C12.08870503 55.88765665 12.14668459 58.35973238 12.20703125 60.83203125 C12.21858246 61.59884216 12.23013367 62.36565308 12.24203491 63.15570068 C12.35442617 67.23083793 12.75153518 69.35853912 14.62109375 73.09765625 C19.24109375 73.09765625 23.86109375 73.09765625 28.62109375 73.09765625 C28.62109375 78.04765625 28.62109375 82.99765625 28.62109375 88.09765625 C20.11235045 90.44489578 10.22933899 92.24287386 1.99609375 88.41015625 C-3.53912178 83.02060428 -6.42388295 78.42409503 -6.60595703 70.56103516 C-6.60564326 68.81539766 -6.59451572 67.06973827 -6.57421875 65.32421875 C-6.57138885 64.40047455 -6.56855896 63.47673035 -6.56564331 62.5249939 C-6.55449804 59.59074649 -6.5294039 56.65681055 -6.50390625 53.72265625 C-6.49386914 51.72656693 -6.48474457 49.73047279 -6.4765625 47.734375 C-6.45457722 42.85534976 -6.42008642 37.97655571 -6.37890625 33.09765625 C-10.33890625 33.09765625 -14.29890625 33.09765625 -18.37890625 33.09765625 C-18.37890625 28.14765625 -18.37890625 23.19765625 -18.37890625 18.09765625 C-16.95578125 17.97390625 -15.53265625 17.85015625 -14.06640625 17.72265625 C-10.57316827 17.41889643 -9.41416111 17.12115949 -6.37890625 15.09765625 C-5.60888338 11.79157705 -5.60888338 11.79157705 -5.25390625 8.03515625 C-4.33846111 0.12538905 -4.33846111 0.12538905 0 0 Z " fill="#04452F" transform="translate(842.37890625,404.90234375)"/>
<path d="M0 0 C5.77652953 0.27950949 10.91743282 1.19205838 16.43041992 2.86108398 C31.97558923 7.56177564 43.83893424 6.13221427 59 1 C62.52059568 -0.17353189 65.306493 -0.20146402 69 0 C71 2 71 2 71.4453125 4.4921875 C70.78854125 9.66570135 68.3820132 13.60458242 65.875 18.125 C61.76935628 25.68920228 57.85313215 33.29373569 54 41 C42.12 41 30.24 41 18 41 C11.33333333 28.33333333 4.66666667 15.66666667 -2 3 C-1.34 2.01 -0.68 1.02 0 0 Z " fill="#6ECC96" transform="translate(245,378)"/>
<path d="M0 0 C5.61972265 4.51884415 9.03998858 9.75889146 10.12109375 16.94140625 C10.42112899 23.83021543 8.68972144 30.54409881 4.46875 36.05859375 C0.40944568 40.02349564 -2.99920035 41.82335429 -8.65625 42.12109375 C-14.62293569 41.90010539 -18.3548215 39.5978987 -22.53125 35.30859375 C-27.0339535 28.30438831 -26.9565403 20.75317511 -26.21875 12.68359375 C-24.32045842 5.74835803 -19.95973188 1.90796136 -13.90625 -1.69140625 C-8.90061699 -2.85550695 -4.48988504 -2.66389306 0 0 Z " fill="#FAFBF9" transform="translate(711.21875,561.31640625)"/>
<path d="M0 0 C5.40100092 4.28355245 8.5348188 9.08641082 9.37890625 15.9609375 C9.63183272 22.96128952 9.06541113 29.01845121 5 34.875 C1.20398751 38.87391739 -2.02879206 41.70506828 -7.625 42.1875 C-12.43388215 42.09149691 -16.17658726 40.81608672 -20 37.875 C-26.28562651 30.28246105 -26.8057816 22.48682334 -26 12.875 C-24.35306654 6.73372403 -20.32517636 2.2499473 -15 -1.125 C-10.0486764 -2.81182367 -4.59275584 -2.58342516 0 0 Z " fill="#FAFBF9" transform="translate(629,561.125)"/>
<path d="M0 0 C5.13592676 2.42260696 8.18941616 6.17385803 11 11 C13.19980405 17.59941216 13.34039894 27.21432429 10.375 33.625 C7.63181478 38.10586127 4.02728578 41.32423807 -1 43 C-6.82760798 43.80460071 -11.36558063 43.18447543 -16.203125 39.73046875 C-21.31684448 34.80573455 -23.28612432 28.92713009 -23.5625 21.9375 C-23.24439714 15.41639133 -21.80947881 9.96590859 -17.24609375 5.1484375 C-11.62293733 0.19442496 -7.50480486 -0.80945507 0 0 Z " fill="#FBFBFA" transform="translate(626,437)"/>
<path d="M0 0 C5.33077051 2.61692371 8.6566507 6.24613394 11.25 11.5625 C12.86296306 18.95524734 13.25261998 26.54187287 9.34765625 33.24609375 C6.5562902 36.87891508 3.10571986 39.94714007 -1 42 C-7.54093522 42.81262128 -11.67994619 41.85964688 -17 38 C-22.58709973 32.11089488 -23.43534085 26.62155057 -23.43823242 18.67456055 C-23.27828522 12.91716606 -21.94182613 9.15605581 -18 5 C-12.19492437 -0.2650686 -7.70031103 -0.78419009 0 0 Z " fill="#FBFCFA" transform="translate(709,437)"/>
<path d="M0 0 C3.465 -0.061875 6.93 -0.12375 10.5 -0.1875 C12.11358398 -0.22846802 12.11358398 -0.22846802 13.75976562 -0.27026367 C21.29456414 -0.33490724 27.06587322 0.44044259 32.9375 5.5625 C35.87505084 9.03415099 36.4239017 11.30046916 36.33203125 15.90234375 C35.75229743 19.56489739 33.87115223 21.85255398 31 24 C24.33008539 27.26846813 17.72302964 27.37405446 10.4375 27.1875 C6.993125 27.125625 3.54875 27.06375 0 27 C0 18.09 0 9.18 0 0 Z " fill="#F9FAF8" transform="translate(443,451)"/>
<path d="M0 0 C5.6925 -0.12375 5.6925 -0.12375 11.5 -0.25 C12.68013672 -0.28641602 13.86027344 -0.32283203 15.07617188 -0.36035156 C21.56679873 -0.42828182 26.65348233 0.09757944 32 4 C34.90099065 7.19108971 36.24578207 9.74461038 36.5625 14 C36.30930953 18.72019369 34.4048979 20.82209529 31 24 C27.17445742 25.92439598 24.07899836 26.23723151 19.82421875 26.1953125 C18.25933716 26.18781982 18.25933716 26.18781982 16.6628418 26.18017578 C14.69504761 26.15286377 14.69504761 26.15286377 12.6875 26.125 C8.500625 26.08375 4.31375 26.0425 0 26 C0 17.42 0 8.84 0 0 Z " fill="#FCFDFB" transform="translate(443,574)"/>
<path d="M0 0 C4.455 -0.0928125 4.455 -0.0928125 9 -0.1875 C9.91910156 -0.21481201 10.83820313 -0.24212402 11.78515625 -0.27026367 C18.53491071 -0.33755861 24.19091719 0.61227961 29.5 5.125 C31.60596832 9.16143927 32.17140711 12.55646235 31 17 C28.56407529 20.27284856 25.78814765 22.45106497 21.875 23.65234375 C17.64230312 24.16417802 13.44595158 24.10346408 9.1875 24.0625 C6.155625 24.041875 3.12375 24.02125 0 24 C0 16.08 0 8.16 0 0 Z " fill="#FBFDFB" transform="translate(443,412)"/>
<path d="M0 0 C4.7334375 -0.061875 4.7334375 -0.061875 9.5625 -0.125 C10.5429126 -0.14320801 11.5233252 -0.16141602 12.53344727 -0.18017578 C18.78502962 -0.21947398 24.4122333 -0.12329576 29.4375 4 C31.69346929 8.33146105 32.05895895 12.22291851 31 17 C28.66551367 20.22729928 25.76247285 21.74584238 22 23 C20.29983156 23.08178114 18.59663703 23.10749501 16.89453125 23.09765625 C15.56578979 23.09390991 15.56578979 23.09390991 14.21020508 23.09008789 C13.0889624 23.08098389 11.96771973 23.07187988 10.8125 23.0625 C7.244375 23.041875 3.67625 23.02125 0 23 C0 15.41 0 7.82 0 0 Z " fill="#FCFDFB" transform="translate(443,535)"/>
<path d="M0 0 C4.98174311 4.49571939 6.41754372 6.44276235 7.5625 13.3125 C-3.3275 13.3125 -14.2175 13.3125 -25.4375 13.3125 C-24.30611314 6.52417883 -24.30611314 6.52417883 -21.0625 3 C-20.45664062 2.32324219 -19.85078125 1.64648438 -19.2265625 0.94921875 C-14.30077317 -3.55712564 -5.58460811 -2.74153489 0 0 Z " fill="#F9FCFA" transform="translate(793.4375,437.6875)"/>
<path d="M0 0 C14.85 0 29.7 0 45 0 C45 0.33 45 0.66 45 1 C30.81 1 16.62 1 2 1 C2 32.02 2 63.04 2 95 C17.51 95 33.02 95 49 95 C49 95.33 49 95.66 49 96 C32.88554451 98.68574258 16.33673434 97 0 97 C0 64.99 0 32.98 0 0 Z " fill="#143624" transform="translate(423,397)"/>
<path d="M0 0 C13.2 0 26.4 0 40 0 C39.67 0.66 39.34 1.32 39 2 C26.79 2 14.58 2 2 2 C2 33.02 2 64.04 2 96 C17.18 96 32.36 96 48 96 C48 96.33 48 96.66 48 97 C32.16 97 16.32 97 0 97 C0 64.99 0 32.98 0 0 Z " fill="#0A2E1B" transform="translate(423,519)"/>
<path d="M0 0 C5.28 0 10.56 0 16 0 C16 31.02 16 62.04 16 94 C11.05 94 6.1 94 1 94 C1 93.67 1 93.34 1 93 C5.29 93 9.58 93 14 93 C14 62.64 14 32.28 14 1 C10.37 1.33 6.74 1.66 3 2 C2.98018066 2.9286084 2.96036133 3.8572168 2.93994141 4.81396484 C2.86191387 8.2545052 2.77522538 11.69459891 2.68261719 15.13476562 C2.64430002 16.62458889 2.60945192 18.11450554 2.578125 19.60449219 C2.53253271 21.74448048 2.47453126 23.88382436 2.4140625 26.0234375 C2.3826416 27.31169434 2.3512207 28.59995117 2.31884766 29.92724609 C2 33 2 33 0 35 C-1.51322577 31.97354845 -1.00453618 28.89228139 -0.87890625 25.5859375 C-0.85529526 24.85629791 -0.83168427 24.12665833 -0.80735779 23.37490845 C-0.73070246 21.04140861 -0.64668657 18.70823911 -0.5625 16.375 C-0.50928115 14.79428707 -0.45654074 13.21355795 -0.40429688 11.6328125 C-0.27598485 7.75493804 -0.13772887 3.8775973 0 0 Z " fill="#0F4734" transform="translate(639,521)"/>
<path d="M0 0 C5.61 0 11.22 0 17 0 C17 31.68 17 63.36 17 96 C11.06 96 5.12 96 -1 96 C-0.67 92.37 -0.34 88.74 0 85 C0.33 85 0.66 85 1 85 C1 87.64 1 90.28 1 93 C5.29 93 9.58 93 14 93 C14 62.64 14 32.28 14 1 C9.38 1 4.76 1 0 1 C0 0.67 0 0.34 0 0 Z " fill="#356655" transform="translate(640,398)"/>
<path d="M0 0 C6.27 0 12.54 0 19 0 C19.01458252 1.45817139 19.02916504 2.91634277 19.04418945 4.41870117 C19.10219647 9.83284937 19.17942995 15.24658273 19.26245117 20.66040039 C19.29568906 23.00277978 19.3237245 25.34523904 19.34643555 27.68774414 C19.38000168 31.05649833 19.43232019 34.42452131 19.48828125 37.79296875 C19.49467117 38.83897751 19.5010611 39.88498627 19.50764465 40.96269226 C19.57429689 48.00448112 19.57429689 48.00448112 23 54 C26.03525486 56.02350324 27.19426202 56.32124018 30.6875 56.625 C31.49574219 56.69976563 32.30398438 56.77453125 33.13671875 56.8515625 C33.75160156 56.90054688 34.36648438 56.94953125 35 57 C34.34 57.66 33.68 58.32 33 59 C28.47035577 58.92450593 25.26848944 58.5944747 21.625 55.8125 C16.32205283 50.13077089 16.72509186 43.92145523 16.8046875 36.5703125 C16.8075174 35.57998016 16.81034729 34.58964783 16.81326294 33.56930542 C16.8244153 30.42107824 16.84951093 27.27314051 16.875 24.125 C16.88503618 21.98437912 16.89416092 19.84375376 16.90234375 17.703125 C16.92433847 12.46863928 16.95883437 7.23436864 17 2 C12.05 2 7.1 2 2 2 C2 18.83 2 35.66 2 53 C-0.17585822 49.73621267 -0.24605016 48.84095685 -0.22705078 45.06958008 C-0.22689972 44.06876907 -0.22674866 43.06795807 -0.22659302 42.03681946 C-0.21627045 40.95861435 -0.20594788 39.88040924 -0.1953125 38.76953125 C-0.1924826 37.66397385 -0.18965271 36.55841644 -0.18673706 35.4193573 C-0.17553002 31.88362872 -0.15042427 28.3481522 -0.125 24.8125 C-0.11497089 22.41732136 -0.10584492 20.02213876 -0.09765625 17.62695312 C-0.07558893 11.75120476 -0.0410553 5.87564514 0 0 Z " fill="#0A2F1A" transform="translate(508,546)"/>
<path d="M0 0 C5.61 0 11.22 0 17 0 C17 22.77 17 45.54 17 69 C11.39 69 5.78 69 0 69 C0 65.37 0 61.74 0 58 C2 62 2 62 2 66 C5.96 66 9.92 66 14 66 C14 44.55 14 23.1 14 1 C9.71 1 5.42 1 1 1 C1.01047363 2.22630127 1.02094727 3.45260254 1.03173828 4.71606445 C1.06791104 9.26144497 1.09089057 13.80681273 1.10986328 18.35229492 C1.11992707 20.32041564 1.13357934 22.28852138 1.15087891 24.2565918 C1.17511059 27.08385918 1.18647923 29.91092905 1.1953125 32.73828125 C1.20563507 33.61962234 1.21595764 34.50096344 1.22659302 35.40901184 C1.22674408 36.22963608 1.22689514 37.05026031 1.22705078 37.89575195 C1.231492 38.61745071 1.23593323 39.33914948 1.24050903 40.0827179 C1 42 1 42 -1 45 C-0.67 30.15 -0.34 15.3 0 0 Z " fill="#164935" transform="translate(557,425)"/>
<path d="M0 0 C6.43813387 5.45841785 6.43813387 5.45841785 9.1640625 8.0859375 C18.58375488 17.06457405 29.25570353 23.99502904 42 27 C42.66 27.33 43.32 27.66 44 28 C44 28.66 44 29.32 44 30 C44.9178125 30.12117187 45.835625 30.24234375 46.78125 30.3671875 C53.30736024 31.25835802 59.65478526 32.22333987 66 34 C66 34.66 66 35.32 66 36 C78.21 36.33 90.42 36.66 103 37 C103 37.33 103 37.66 103 38 C74.51215486 43.6883942 42.51137987 34.67425325 18.765625 18.84375 C11.93107125 13.91732039 5.48599993 8.42056187 0 2 C0 1.34 0 0.68 0 0 Z " fill="#133021" transform="translate(193,608)"/>
<path d="M0 0 C5.94 0 11.88 0 18 0 C16.6328125 6.93359375 16.6328125 6.93359375 16 9 C15.01 9.495 15.01 9.495 14 10 C14.66 7.36 15.32 4.72 16 2 C11.05 2.33 6.1 2.66 1 3 C-0.65508992 7.6769613 -2.30910031 12.35430252 -3.9621582 17.03198242 C-4.52339285 18.61964964 -5.08491042 20.20721688 -5.64672852 21.79467773 C-9.91985812 33.86419683 -9.91985812 33.86419683 -14 46 C-15.6668154 41.94982427 -14.18850057 38.62104428 -12.83203125 34.70703125 C-12.5959465 34.00156662 -12.35986176 33.29610199 -12.11662292 32.56925964 C-11.6145083 31.07567188 -11.10732396 29.58378025 -10.59545898 28.09350586 C-9.8224223 25.84140678 -9.06513745 23.58450955 -8.31054688 21.32617188 C-5.85933649 14.04933946 -3.29651171 6.94706406 0 0 Z " fill="#0A2616" transform="translate(799,546)"/>
<path d="M0 0 C6.27 0 12.54 0 19 0 C18.67 12.54 18.34 25.08 18 38 C17.67 38 17.34 38 17 38 C17 26.12 17 14.24 17 2 C11.72 2 6.44 2 1 2 C1 14.87 1 27.74 1 41 C0.67 41 0.34 41 0 41 C0 27.47 0 13.94 0 0 Z " fill="#1F4533" transform="translate(555,546)"/>
<path d="M0 0 C6.27 0 12.54 0 19 0 C22.49021456 8.26696807 25.83107034 16.57916981 29.02197266 24.96582031 C29.7579984 26.89597501 30.50203118 28.82293148 31.24609375 30.75 C31.72184708 31.99720792 32.19712516 33.24459726 32.671875 34.4921875 C33.0956543 35.59933105 33.51943359 36.70647461 33.95605469 37.84716797 C34.96855104 40.90502062 35.56441307 43.81349561 36 47 C33.13898796 44.13898796 32.19099637 40.61486601 30.8125 36.88671875 C30.35774292 35.67687065 30.35774292 35.67687065 29.89379883 34.44258118 C28.92407399 31.85944075 27.96187906 29.27357094 27 26.6875 C26.03644041 24.1127937 25.07137817 21.53865418 24.10620117 18.96455383 C23.50609446 17.36233231 22.90724331 15.7596398 22.30981445 14.15641785 C22.03613037 13.42248306 21.76244629 12.68854828 21.48046875 11.93237305 C21.12311646 10.97212471 21.12311646 10.97212471 20.75854492 9.99247742 C19.86705414 7.6507898 18.93057318 5.32643295 18 3 C12.39 3 6.78 3 1 3 C0.67 2.01 0.34 1.02 0 0 Z " fill="#0D2517" transform="translate(746,546)"/>
<path d="M0 0 C2 3 2 3 3.0078125 4.9375 C5.00738624 8.62902074 6.6534522 11.30167806 10.625 12.9375 C15.64485119 14.42063785 20.7980328 14.71946248 26 15 C27.051875 15.12375 28.10375 15.2475 29.1875 15.375 C32.91872615 14.87750318 35.23781037 13.16133328 38.265625 10.99609375 C39.12414062 10.50302734 39.12414062 10.50302734 40 10 C40.66 10.33 41.32 10.66 42 11 C34.44581631 17.63852506 28.51851908 18.57273044 18.60546875 18.34765625 C12.30453159 17.74009026 8.2921525 15.71798301 4.125 11 C1.18031807 6.84280198 0 5.15468803 0 0 Z " fill="#0B2C1D" transform="translate(510,600)"/>
<path d="M0 0 C1.5625 1.0625 1.5625 1.0625 3 3 C3 8.96495312 0.77113481 13.51103524 -3 18 C-7.17242808 20.78161872 -8.85128881 21 -14 21 C-14 24.96 -14 28.92 -14 33 C-10.37 33 -6.74 33 -3 33 C-7.38498404 35.92332269 -10.7774672 35.1356502 -16 35 C-16 29.72 -16 24.44 -16 19 C-14.618125 18.938125 -13.23625 18.87625 -11.8125 18.8125 C-8.23188052 18.4077832 -7.09987973 18.07599544 -4.125 15.8125 C-0.79939056 11.4109581 1.14307333 8.77410935 0.6875 3.125 C0.3471875 1.578125 0.3471875 1.578125 0 0 Z " fill="#062212" transform="translate(772,609)"/>
<path d="M0 0 C0 3.736514 -1.20552937 5.64064296 -2.9375 8.9375 C-5.48131097 13.79058618 -7.02674022 17.64710121 -7.31640625 23.109375 C-7.35830078 23.86347656 -7.40019531 24.61757813 -7.44335938 25.39453125 C-7.50233398 26.56048828 -7.50233398 26.56048828 -7.5625 27.75 C-7.60568359 28.54277344 -7.64886719 29.33554687 -7.69335938 30.15234375 C-7.79902991 32.10137815 -7.89997966 34.05066748 -8 36 C-7.34 36 -6.68 36 -6 36 C-5.90203125 36.58007812 -5.8040625 37.16015625 -5.703125 37.7578125 C-4.68120485 43.09646432 -3.31626744 46.68885232 0 51 C-0.33 51.66 -0.66 52.32 -1 53 C-7.89794067 45.60934928 -10.33656795 35.69838663 -10.21875 25.81640625 C-9.50906955 16.67927041 -6.87517664 6.42594635 0 0 Z " fill="#122B1D" transform="translate(594,432)"/>
<path d="M0 0 C0.33 0 0.66 0 1 0 C1.24234375 1.02480469 1.4846875 2.04960938 1.734375 3.10546875 C2.07224003 4.466314 2.41081969 5.82698197 2.75 7.1875 C2.90726563 7.86103516 3.06453125 8.53457031 3.2265625 9.22851562 C4.67704426 14.94676101 6.7910185 18.51022178 11.6875 21.8125 C16.54271889 23.55305017 20.98331608 23.95739071 25.95703125 22.37890625 C31.02652318 19.89386118 33.42802379 15.88319907 36 11 C37 14 37 14 35.76953125 16.6640625 C30.65014511 24.4095609 30.65014511 24.4095609 26.07421875 26.046875 C20.05025921 26.68983892 14.17702977 26.35869941 9 23 C3.90185018 18.70315391 1.33108421 13.47339244 0 7 C-0.19834526 4.59781855 -0.15412678 2.4146529 0 0 Z " fill="#062212" transform="translate(683,579)"/>
<path d="M0 0 C7.8067494 0.19878297 13.12912161 2.24069903 18.76171875 7.7109375 C23.22586532 12.66149229 25.28702906 16.9019245 25.25 23.6875 C25.25515625 24.64011719 25.2603125 25.59273438 25.265625 26.57421875 C25 29 25 29 23 31 C21.25642513 29.25642513 21.70686201 26.74960772 21.5625 24.375 C20.97427983 15.2446726 20.97427983 15.2446726 16.125 7.8125 C11.40046885 4.07099232 5.72650119 2.59853071 0 1 C0 0.67 0 0.34 0 0 Z " fill="#0A2E1C" transform="translate(469,398)"/>
<path d="M0 0 C0 0.33 0 0.66 0 1 C-0.84304688 1.12117187 -1.68609375 1.24234375 -2.5546875 1.3671875 C-3.65039062 1.53476562 -4.74609375 1.70234375 -5.875 1.875 C-6.96554687 2.03742187 -8.05609375 2.19984375 -9.1796875 2.3671875 C-12.11932714 2.76256513 -12.11932714 2.76256513 -14 5 C-15.20024737 7.68247841 -15.20024737 7.68247841 -15 11 C-11.9019828 17.20818349 -7.00936527 20.82754321 -1 24 C-4 25 -4 25 -5.83203125 24.1015625 C-11.6636718 19.75371215 -16.9142889 14.74549225 -18.58984375 7.421875 C-18.83443911 5.29087981 -18.93193948 3.14390652 -19 1 C-12.62641289 0.03794912 -6.44070471 -0.10655578 0 0 Z " fill="#07371B" transform="translate(266,556)"/>
<path d="M0 0 C3.61328125 0.03255208 7.2265625 0.06510417 10.83984375 0.09765625 C10.83984375 5.37765625 10.83984375 10.65765625 10.83984375 16.09765625 C10.50984375 16.09765625 10.17984375 16.09765625 9.83984375 16.09765625 C9.83984375 11.80765625 9.83984375 7.51765625 9.83984375 3.09765625 C6.20984375 3.09765625 2.57984375 3.09765625 -1.16015625 3.09765625 C-1.49015625 6.72765625 -1.82015625 10.35765625 -2.16015625 14.09765625 C-3.15015625 13.76765625 -4.14015625 13.43765625 -5.16015625 13.09765625 C-5.01982514 11.11809184 -4.87274395 9.13900484 -4.72265625 7.16015625 C-4.64144531 6.05800781 -4.56023438 4.95585937 -4.4765625 3.8203125 C-4.02511839 -0.06433619 -3.99120026 0.12333746 0 0 Z " fill="#244B3C" transform="translate(842.16015625,404.90234375)"/>
<path d="M0 0 C0.66 0.33 1.32 0.66 2 1 C1.44570312 1.51949219 0.89140625 2.03898437 0.3203125 2.57421875 C-0.76636719 3.62029297 -0.76636719 3.62029297 -1.875 4.6875 C-2.59429687 5.37199219 -3.31359375 6.05648438 -4.0546875 6.76171875 C-6.11325233 8.87014296 -6.11325233 8.87014296 -6.9375 11.46875 C-8.34373893 14.81890746 -10.38409834 16.45813575 -13.125 18.8125 C-14.03507813 19.60269531 -14.94515625 20.39289063 -15.8828125 21.20703125 C-16.58148438 21.79871094 -17.28015625 22.39039063 -18 23 C-18 18.56560851 -15.17957985 16.35342642 -12.375 13.1875 C-11.85292969 12.58357422 -11.33085937 11.97964844 -10.79296875 11.35742188 C-7.3471834 7.40540386 -3.74356692 3.67049429 0 0 Z " fill="#0A2B1C" transform="translate(219,459)"/>
<path d="M0 0 C1.2684375 0.12375 1.2684375 0.12375 2.5625 0.25 C3.2225 1.24 3.8825 2.23 4.5625 3.25 C-9.9575 3.58 -24.4775 3.91 -39.4375 4.25 C-39.4375 3.59 -39.4375 2.93 -39.4375 2.25 C-38.35218994 2.22494385 -37.26687988 2.1998877 -36.14868164 2.17407227 C-32.136184 2.08016245 -28.12386618 1.97990233 -24.11157227 1.87768555 C-22.37235712 1.83427427 -20.63309765 1.79260388 -18.89379883 1.75268555 C-16.39911512 1.69513232 -13.9046559 1.6313958 -11.41015625 1.56640625 C-10.62786148 1.54969376 -9.84556671 1.53298126 -9.03956604 1.51576233 C-5.55418645 1.41930137 -3.16741822 0.32486341 0 0 Z " fill="#0F4C35" transform="translate(465.4375,518.75)"/>
<path d="M0 0 C0.66 0 1.32 0 2 0 C3.12915039 1.49707031 3.12915039 1.49707031 4.34765625 3.578125 C5.00797852 4.70154297 5.00797852 4.70154297 5.68164062 5.84765625 C6.13732422 6.64042969 6.59300781 7.43320312 7.0625 8.25 C7.52205078 9.02730469 7.98160156 9.80460937 8.45507812 10.60546875 C10.46696606 14.0620163 12.1814226 17.05358363 13 21 C13.66 21 14.32 21 15 21 C15.33 21.99 15.66 22.98 16 24 C15.34 24.99 14.68 25.98 14 27 C13.49210938 25.96101563 12.98421875 24.92203125 12.4609375 23.8515625 C8.90689226 16.6334906 5.31404652 9.5455156 1.03125 2.72265625 C0 1 0 1 0 0 Z " fill="#082415" transform="translate(230,386)"/>
<path d="M0 0 C2.85832305 2.52255618 4.42725574 5.3614176 6.25 8.6875 C9.30808565 14.05382088 12.71240665 18.56905246 17 23 C16.34 23.66 15.68 24.32 15 25 C1.34052388 8.70570108 1.34052388 8.70570108 0 0 Z " fill="#083519" transform="translate(192,582)"/>
<path d="M0 0 C0.33 0 0.66 0 1 0 C1.02505615 1.00901367 1.0501123 2.01802734 1.07592773 3.05761719 C1.17022409 6.80741696 1.27039021 10.55704108 1.37231445 14.30664062 C1.41557931 15.92834357 1.45726028 17.55008958 1.49731445 19.171875 C1.55522214 21.50534027 1.61885698 23.83859043 1.68359375 26.171875 C1.70030624 26.89493835 1.71701874 27.61800171 1.73423767 28.36297607 C1.83202649 31.69890556 1.9845665 34.80554016 3 38 C2.01 38 1.02 38 0 38 C0 25.46 0 12.92 0 0 Z " fill="#194536" transform="translate(852,438)"/>
<path d="M0 0 C0.33 0 0.66 0 1 0 C1 2.97 1 5.94 1 9 C5.95 9 10.9 9 16 9 C16 9.66 16 10.32 16 11 C10.39 11 4.78 11 -1 11 C-0.67 7.37 -0.34 3.74 0 0 Z " fill="#213A29" transform="translate(640,483)"/>
<path d="M0 0 C3.08325358 -0.0582253 6.16636505 -0.09367134 9.25 -0.125 C10.55904297 -0.15013672 10.55904297 -0.15013672 11.89453125 -0.17578125 C12.73886719 -0.18222656 13.58320313 -0.18867188 14.453125 -0.1953125 C15.22817383 -0.20578613 16.00322266 -0.21625977 16.80175781 -0.22705078 C19.25883539 0.02673444 20.87311542 0.77555848 23 2 C19.42450935 3.16857499 16.34827244 2.9461214 12.625 2.625 C11.52414062 2.53476562 10.42328125 2.44453125 9.2890625 2.3515625 C6.16363291 2.01749045 3.09373986 1.55145212 0 1 C0 0.67 0 0.34 0 0 Z " fill="#C8DDD8" transform="translate(443,412)"/>
<path d="M0 0 C6.27 0 12.54 0 19 0 C18.67 0.99 18.34 1.98 18 3 C12.39 3 6.78 3 1 3 C0.67 2.01 0.34 1.02 0 0 Z " fill="#01210E" transform="translate(746,546)"/>
<path d="M0 0 C0.86625 0.3403125 0.86625 0.3403125 1.75 0.6875 C0.43 1.0175 -0.89 1.3475 -2.25 1.6875 C-2.25 2.3475 -2.25 3.0075 -2.25 3.6875 C-3.24 4.1825 -3.24 4.1825 -4.25 4.6875 C-4.58425735 7.06124861 -4.58425735 7.06124861 -4.25 9.6875 C-1.89139564 11.96186849 0.79191542 13.31410359 3.75 14.6875 C-0.35169759 14.4508636 -2.60989257 14.24759401 -5.75 11.5 C-7.25 8.6875 -7.25 8.6875 -7.25 5.5625 C-5.91652282 1.72875311 -4.31454181 -0.59924192 0 0 Z " fill="#0D2215" transform="translate(239.25,420.3125)"/>
<path d="M0 0 C0.99 0.66 1.98 1.32 3 2 C-1.64836288 6.86456581 -5.97901719 10.00221109 -12 13 C-8.19524578 8.43969176 -4.25030379 4.14910608 0 0 Z " fill="#184433" transform="translate(233,444)"/>
<path d="M0 0 C1.13682674 3.41048021 0.8906164 3.98332657 -0.36328125 7.1953125 C-0.67330078 7.99324219 -0.98332031 8.79117188 -1.30273438 9.61328125 C-1.63595703 10.44214844 -1.96917969 11.27101563 -2.3125 12.125 C-2.63412109 12.96160156 -2.95574219 13.79820312 -3.28710938 14.66015625 C-5.73730124 20.86865062 -5.73730124 20.86865062 -8 22 C-7.34 18.7 -6.68 15.4 -6 12 C-5.34 12 -4.68 12 -4 12 C-3.79503906 11.30132813 -3.59007812 10.60265625 -3.37890625 9.8828125 C-3.10949219 8.97273437 -2.84007812 8.06265625 -2.5625 7.125 C-2.29566406 6.22007812 -2.02882813 5.31515625 -1.75390625 4.3828125 C-1 2 -1 2 0 0 Z " fill="#0B2719" transform="translate(809,565)"/>
<path d="M0 0 C5.2916954 4.40974617 10.17838636 9.08405044 15 14 C15.99887451 15.00112423 16.9984556 16.00154679 18 17 C15 17 15 17 13.2824707 15.65478516 C12.66976318 15.03909668 12.05705566 14.4234082 11.42578125 13.7890625 C10.75869141 13.12132812 10.09160156 12.45359375 9.40429688 11.765625 C8.71400391 11.05921875 8.02371094 10.3528125 7.3125 9.625 C6.2596582 8.57699219 6.2596582 8.57699219 5.18554688 7.5078125 C0 2.26683218 0 2.26683218 0 0 Z " fill="#0A3C1F" transform="translate(300,434)"/>
<path d="M0 0 C0.99 0.495 0.99 0.495 2 1 C2 1.66 2 2.32 2 3 C2.99 3.33 3.98 3.66 5 4 C5.6953125 5.85546875 5.6953125 5.85546875 6.125 8.1875 C6.2796875 8.99445312 6.434375 9.80140625 6.59375 10.6328125 C6.7278125 11.41398438 6.861875 12.19515625 7 13 C7.309375 14.7634375 7.309375 14.7634375 7.625 16.5625 C7.74875 17.366875 7.8725 18.17125 8 19 C5.27227952 16.27227952 4.2539869 13.02994255 2.875 9.5 C2.59785156 8.81035156 2.32070313 8.12070312 2.03515625 7.41015625 C0 2.26712592 0 2.26712592 0 0 Z " fill="#0C291B" transform="translate(764,589)"/>
<path d="M0 0 C1.27910437 3.8373131 0.28371237 5.22169763 -1 9 C-1.27580863 11.28452807 -1.4843786 13.57818383 -1.625 15.875 C-1.69976563 17.02742188 -1.77453125 18.17984375 -1.8515625 19.3671875 C-1.90054688 20.23601562 -1.94953125 21.10484375 -2 22 C-2.33 22 -2.66 22 -3 22 C-4.07674595 14.3330499 -4.40817937 8.10318571 -1 1 C-0.67 0.67 -0.34 0.34 0 0 Z " fill="#123828" transform="translate(753,440)"/>
<path d="M0 0 C0.33 0.99 0.66 1.98 1 3 C-2.66666667 6.66666667 -6.33333333 10.33333333 -10 14 C-7.96733835 8.24079198 -5.22242519 3.35727334 0 0 Z " fill="#093C28" transform="translate(601,426)"/>
<path d="M0 0 C0.33 0.99 0.66 1.98 1 3 C-0.65234375 5.69921875 -0.65234375 5.69921875 -2.9375 8.6875 C-3.68902344 9.68136719 -4.44054687 10.67523437 -5.21484375 11.69921875 C-5.80394531 12.45847656 -6.39304687 13.21773437 -7 14 C-8.65 13.67 -10.3 13.34 -12 13 C-11.443125 12.608125 -10.88625 12.21625 -10.3125 11.8125 C-5.95511221 8.39725011 -2.64738777 4.87676694 0 0 Z " fill="#092A1B" transform="translate(719,590)"/>
<path d="M0 0 C6.04942966 2.12547529 6.04942966 2.12547529 8 5 C8.375 8.0625 8.375 8.0625 8 11 C7.01 11.66 6.02 12.32 5 13 C5.33 10.69 5.66 8.38 6 6 C4.02 5.01 2.04 4.02 0 3 C0 2.01 0 1.02 0 0 Z " fill="#0D2B1D" transform="translate(320,419)"/>
<path d="M0 0 C0.33 0.66 0.66 1.32 1 2 C0.37915039 3.69580078 0.37915039 3.69580078 -0.65234375 5.6953125 C-1.01650391 6.41074219 -1.38066406 7.12617188 -1.75585938 7.86328125 C-2.14580078 8.60964844 -2.53574219 9.35601562 -2.9375 10.125 C-3.32357422 10.87910156 -3.70964844 11.63320313 -4.10742188 12.41015625 C-5.06452132 14.27709097 -6.03136106 16.13902628 -7 18 C-7.33 17.34 -7.66 16.68 -8 16 C-7.35191436 14.65753688 -6.68177416 13.32567199 -6 12 C-5.62331656 10.34259285 -5.27942455 8.67654729 -5 7 C-4.34 7 -3.68 7 -3 7 C-2.690625 6.030625 -2.38125 5.06125 -2.0625 4.0625 C-1 1 -1 1 0 0 Z " fill="#90E5B5" transform="translate(308,397)"/>
<path d="M0 0 C1.0169313 2.65498232 1.13022151 3.69155375 0.00390625 6.359375 C-0.47175781 7.14828125 -0.94742187 7.9371875 -1.4375 8.75 C-2.14712891 9.94882812 -2.14712891 9.94882812 -2.87109375 11.171875 C-3.24363281 11.77515625 -3.61617188 12.3784375 -4 13 C-4.33 13 -4.66 13 -5 13 C-4.25 6.375 -4.25 6.375 -2 3 C-1.34 3 -0.68 3 0 3 C0 2.01 0 1.02 0 0 Z " fill="#103223" transform="translate(332,381)"/>
<path d="M0 0 C3.07531556 0.33246655 4.61832506 0.63104756 6.875 2.8125 C8 5 8 5 7.6875 7.25 C7.460625 7.8275 7.23375 8.405 7 9 C4.61327331 6.03716687 2.2646629 3.05729491 0 0 Z " fill="#1A4130" transform="translate(712,562)"/>
<path d="M0 0 C0.66 0.33 1.32 0.66 2 1 C-0.31 3.64 -2.62 6.28 -5 9 C-5.66 8.67 -6.32 8.34 -7 8 C-7 7.01 -7 6.02 -7 5 C-4.625 3.4375 -4.625 3.4375 -2 2 C-1.34 1.34 -0.68 0.68 0 0 Z " fill="#134B37" transform="translate(227,452)"/>
<path d="M0 0 C0.66 0.33 1.32 0.66 2 1 C2.40652968 6.42039575 1.03993514 10.07015675 -1 15 C-1.33 15 -1.66 15 -2 15 C-2.22577402 9.5814234 -1.46670113 5.22512279 0 0 Z " fill="#89E1B0" transform="translate(290,585)"/>
<path d="M0 0 C0.66 0.33 1.32 0.66 2 1 C-0.31 3.31 -2.62 5.62 -5 8 C-5.66 7.67 -6.32 7.34 -7 7 C-6.875 5.1875 -6.875 5.1875 -6 3 C-3.0625 1.1875 -3.0625 1.1875 0 0 Z " fill="#164B38" transform="translate(600,550)"/>
<path d="M0 0 C0.99 0.33 1.98 0.66 3 1 C1.02 3.31 -0.96 5.62 -3 8 C-3.66 7.01 -4.32 6.02 -5 5 C-3.35 3.35 -1.7 1.7 0 0 Z " fill="#7CD5A5" transform="translate(244,453)"/>
<path d="M0 0 C0.90105469 0.00902344 1.80210937 0.01804687 2.73046875 0.02734375 C3.41753906 0.03894531 4.10460937 0.05054688 4.8125 0.0625 C4.8125 0.3925 4.8125 0.7225 4.8125 1.0625 C3.74 1.18625 2.6675 1.31 1.5625 1.4375 C-2.03433029 1.8480624 -2.03433029 1.8480624 -4.4375 3.1875 C-5.015 3.47625 -5.5925 3.765 -6.1875 4.0625 C-7.1775 3.7325 -8.1675 3.4025 -9.1875 3.0625 C-7.31499103 -0.68251794 -3.72136574 -0.04832943 0 0 Z " fill="#104531" transform="translate(620.1875,556.9375)"/>
<path d="M0 0 C0.66 0 1.32 0 2 0 C2 5.94 2 11.88 2 18 C-0.40893538 14.38659692 -0.41810201 12.17653508 -0.6875 7.875 C-0.77386719 6.61429688 -0.86023438 5.35359375 -0.94921875 4.0546875 C-0.96597656 3.04664063 -0.98273438 2.03859375 -1 1 C-0.67 0.67 -0.34 0.34 0 0 Z " fill="#DAF0EC" transform="translate(172,544)"/>
<path d="M0 0 C2.662062 0.3832143 5.32819962 0.68828996 8 1 C8 1.33 8 1.66 8 2 C6.06280622 2.05406122 4.12518079 2.09282025 2.1875 2.125 C1.10855469 2.14820313 0.02960938 2.17140625 -1.08203125 2.1953125 C-4 2 -4 2 -7 0 C-3.64629821 -1.1179006 -3.24364156 -0.87665988 0 0 Z " fill="#063719" transform="translate(277,383)"/>
<path d="M0 0 C3.98175544 2.10148204 6.35039045 4.36905358 9 8 C8.67 8.66 8.34 9.32 8 10 C7.38125 9.195625 6.7625 8.39125 6.125 7.5625 C4.25835959 4.96125481 4.25835959 4.96125481 2 4 C2 3.34 2 2.68 2 2 C1.34 2 0.68 2 0 2 C0 1.34 0 0.68 0 0 Z " fill="#82D0A6" transform="translate(316,452)"/>
<path d="M0 0 C0 3.51716303 -0.82445585 4.37121748 -3 7 C-4.65 6.67 -6.3 6.34 -8 6 C-7.01 5.34 -6.02 4.68 -5 4 C-3.32576317 2.67618483 -1.65788785 1.34423339 0 0 Z " fill="#0A2D1B" transform="translate(473,552)"/>
<path d="M0 0 C0.66 0 1.32 0 2 0 C2 0.99 2 1.98 2 3 C-0.85131007 4.98007644 -3.8988485 6.45605064 -7 8 C-6.02133662 6.85373678 -5.04205413 5.70800212 -4.0625 4.5625 C-3.51722656 3.92441406 -2.97195312 3.28632813 -2.41015625 2.62890625 C-1.63204305 1.73008851 -0.84063472 0.84063472 0 0 Z " fill="#203C2F" transform="translate(228,449)"/>
<path d="M0 0 C0.66 0 1.32 0 2 0 C2 2.31 2 4.62 2 7 C1.01 6.67 0.02 6.34 -1 6 C-1.042721 4.33388095 -1.04063832 2.66617115 -1 1 C-0.67 0.67 -0.34 0.34 0 0 Z " fill="#264839" transform="translate(228,374)"/>
<path d="M0 0 C0.66 0.33 1.32 0.66 2 1 C2.625 3.5625 2.625 3.5625 3 6 C2.01 6 1.02 6 0 6 C-0.38218767 4.34385343 -0.71395102 2.67542976 -1 1 C-0.67 0.67 -0.34 0.34 0 0 Z " fill="#0B4227" transform="translate(190,576)"/>
<path d="M0 0 C0.99 0.33 1.98 0.66 3 1 C3 1.66 3 2.32 3 3 C-0.63 3 -4.26 3 -8 3 C-8 2.67 -8 2.34 -8 2 C-6.865625 1.855625 -5.73125 1.71125 -4.5625 1.5625 C-1.19222799 1.38828522 -1.19222799 1.38828522 0 0 Z " fill="#17432F" transform="translate(705,505)"/>
<path d="M0 0 C-1.32 0.33 -2.64 0.66 -4 1 C-4 1.66 -4 2.32 -4 3 C-5.32 3.33 -6.64 3.66 -8 4 C-5.97675095 -0.48005146 -4.79569304 -1.43870791 0 0 Z " fill="#153124" transform="translate(241,421)"/>
</svg>
